<?xml version="1.0" encoding="utf-8"?>
<!-- Generator: Adobe Illustrator 24.1.2, SVG Export Plug-In . SVG Version: 6.00 Build 0)  -->
<svg version="1.1" xmlns="http://www.w3.org/2000/svg" xmlns:xlink="http://www.w3.org/1999/xlink" x="0px" y="0px"
	 viewBox="0 0 16 16" style="enable-background:new 0 0 16 16;" xml:space="preserve">
<style type="text/css">
	.st0{fill:url(#SVGID_1_);}
	.st1{clip-path:url(#SVGID_3_);}
	.st2{fill:#FFFFFF;}
</style>
<g id="레이어_3">
	<linearGradient id="SVGID_1_" gradientUnits="userSpaceOnUse" x1="8" y1="0" x2="8" y2="16">
		<stop  offset="0" style="stop-color:#4BBBFF"/>
		<stop  offset="0.9987" style="stop-color:#0161E0"/>
	</linearGradient>
	<circle class="st0" cx="8" cy="8" r="8"/>
</g>
<g id="레이어_1">
	<g>
		<defs>
			<circle id="SVGID_2_" cx="8" cy="8" r="8"/>
		</defs>
		<clipPath id="SVGID_3_">
			<use xlink:href="#SVGID_2_"  style="overflow:visible;"/>
		</clipPath>
		<g class="st1">
			<path class="st2" d="M11.71,12.2c-0.1,0-0.18-0.02-0.22-0.06c-0.05-0.04-0.07-0.12-0.07-0.23V7.2c0-0.37-0.1-0.67-0.31-0.9
				s-0.46-0.34-0.77-0.34c-0.23,0-0.44,0.05-0.63,0.16C9.52,6.23,9.36,6.37,9.23,6.56C9.1,6.75,9,6.96,8.93,7.2
				c-0.07,0.24-0.1,0.5-0.1,0.76v3.96c0,0.19-0.09,0.28-0.27,0.28H7.24c-0.1,0-0.18-0.02-0.22-0.06c-0.05-0.04-0.07-0.12-0.07-0.23
				V7.2c0-0.44-0.09-0.76-0.26-0.95c-0.17-0.2-0.42-0.29-0.75-0.29c-0.45,0-0.8,0.15-1.06,0.46S4.48,7.08,4.48,7.5v4.42
				c0,0.11-0.02,0.19-0.06,0.22c-0.04,0.04-0.11,0.06-0.21,0.06h-1.3c-0.11,0-0.19-0.02-0.22-0.07c-0.04-0.05-0.06-0.12-0.06-0.22
				V6.43c0-0.35,0-0.71,0-1.06c0-0.35-0.01-0.62-0.03-0.8C2.59,4.47,2.6,4.4,2.64,4.35s0.13-0.06,0.27-0.06h1.3
				c0.1,0,0.17,0.01,0.2,0.03c0.03,0.02,0.04,0.07,0.04,0.15v0.57c0.21-0.21,0.46-0.4,0.75-0.57C5.5,4.32,5.8,4.23,6.09,4.23
				c0.45,0,0.87,0.12,1.27,0.35c0.4,0.23,0.7,0.55,0.92,0.94C8.4,5.35,8.54,5.18,8.7,5.02s0.33-0.3,0.51-0.42
				C9.39,4.48,9.59,4.38,9.8,4.3c0.21-0.07,0.43-0.11,0.65-0.11c0.42,0,0.8,0.06,1.15,0.18c0.35,0.12,0.64,0.3,0.89,0.53
				s0.44,0.52,0.57,0.86c0.13,0.34,0.2,0.73,0.2,1.17v4.98c0,0.11-0.02,0.19-0.06,0.22c-0.04,0.04-0.12,0.06-0.22,0.06H11.71z"/>
		</g>
	</g>
	<g>
	</g>
	<g>
	</g>
	<g>
	</g>
	<g>
	</g>
	<g>
	</g>
</g>
</svg>
